<svg width="259" height="16" viewBox="0 0 259 16" fill="none" xmlns="http://www.w3.org/2000/svg">
<path d="M0.096 12L4.496 0.799999H6.72L11.056 12H8.992L7.84 8.864H3.248L2.096 12H0.096ZM3.808 7.36H7.312L5.552 2.624L3.808 7.36ZM12.2763 12V0.528L14.0843 0.207999V12H12.2763ZM16.3075 12V0.528L18.1155 0.207999V12H16.3075ZM24.1565 12V0.799999H29.1325C29.8685 0.799999 30.5192 0.943999 31.0845 1.232C31.6498 1.52 32.0872 1.92 32.3965 2.432C32.7165 2.93333 32.8765 3.52 32.8765 4.192C32.8765 4.91733 32.6738 5.552 32.2685 6.096C31.8738 6.62933 31.3352 7.01867 30.6525 7.264L33.0205 12H30.8925L28.7325 7.52H26.0765V12H24.1565ZM26.0765 5.984H28.9565C29.5538 5.984 30.0338 5.824 30.3965 5.504C30.7592 5.17333 30.9405 4.74133 30.9405 4.208C30.9405 3.664 30.7592 3.232 30.3965 2.912C30.0338 2.58133 29.5538 2.416 28.9565 2.416H26.0765V5.984ZM34.6665 12V3.984H36.4745V12H34.6665ZM35.5785 2.352C35.2692 2.352 35.0025 2.24533 34.7785 2.032C34.5652 1.808 34.4585 1.54667 34.4585 1.248C34.4585 0.938666 34.5652 0.677333 34.7785 0.464C35.0025 0.239999 35.2692 0.127999 35.5785 0.127999C35.8878 0.127999 36.1492 0.239999 36.3625 0.464C36.5865 0.677333 36.6985 0.933333 36.6985 1.232C36.6985 1.54133 36.5865 1.808 36.3625 2.032C36.1492 2.24533 35.8878 2.352 35.5785 2.352ZM42.4578 15.504C41.8924 15.504 41.3324 15.4347 40.7778 15.296C40.2231 15.1573 39.7111 14.9653 39.2418 14.72L39.8658 13.392C40.3458 13.616 40.7831 13.7813 41.1778 13.888C41.5831 14.0053 41.9831 14.064 42.3778 14.064C43.0498 14.064 43.5564 13.9147 43.8978 13.616C44.2498 13.3173 44.4258 12.8747 44.4258 12.288V10.928C44.1378 11.28 43.7804 11.5573 43.3538 11.76C42.9271 11.952 42.4631 12.048 41.9618 12.048C41.2898 12.048 40.6818 11.8667 40.1378 11.504C39.5938 11.1307 39.1564 10.64 38.8258 10.032C38.5058 9.41333 38.3458 8.72533 38.3458 7.968C38.3458 7.21067 38.5111 6.528 38.8418 5.92C39.1724 5.312 39.6204 4.82667 40.1858 4.464C40.7618 4.10133 41.3964 3.92 42.0898 3.92C42.5591 3.92 42.9964 4.01067 43.4018 4.192C43.8071 4.37333 44.1538 4.64 44.4418 4.992V3.984H46.2338V12.288C46.2338 13.3227 45.9084 14.1173 45.2578 14.672C44.6071 15.2267 43.6738 15.504 42.4578 15.504ZM42.5218 10.544C42.9058 10.544 43.2631 10.4693 43.5938 10.32C43.9244 10.16 44.2018 9.94133 44.4258 9.664V6.304C44.1911 6.02667 43.9084 5.81333 43.5778 5.664C43.2471 5.51467 42.8951 5.44 42.5218 5.44C42.0631 5.44 41.6524 5.552 41.2898 5.776C40.9378 5.98933 40.6551 6.288 40.4418 6.672C40.2284 7.04533 40.1218 7.48267 40.1218 7.984C40.1218 8.464 40.2284 8.90133 40.4418 9.296C40.6551 9.68 40.9378 9.984 41.2898 10.208C41.6524 10.432 42.0631 10.544 42.5218 10.544ZM48.4638 12V0.528L50.2718 0.207999V5.296C50.5811 4.816 50.9491 4.45867 51.3758 4.224C51.8024 3.97867 52.2771 3.856 52.7998 3.856C53.3544 3.856 53.8398 3.97867 54.2558 4.224C54.6718 4.45867 54.9971 4.78933 55.2318 5.216C55.4771 5.64267 55.5998 6.144 55.5998 6.72V12H53.7758V7.232C53.7758 6.64533 53.6158 6.18133 53.2958 5.84C52.9758 5.488 52.5491 5.312 52.0158 5.312C51.6531 5.312 51.3224 5.39733 51.0238 5.568C50.7358 5.728 50.4851 5.968 50.2718 6.288V12H48.4638ZM60.9979 12.16C60.1872 12.16 59.5739 11.9733 59.1579 11.6C58.7419 11.216 58.5339 10.656 58.5339 9.92V5.424H56.9339V3.984H58.5339V1.776L60.3419 1.392V3.984H62.5659V5.424H60.3419V9.52C60.3419 9.91467 60.4272 10.1973 60.5979 10.368C60.7685 10.528 61.0565 10.608 61.4619 10.608C61.6432 10.608 61.8085 10.5973 61.9579 10.576C62.1179 10.544 62.3152 10.4907 62.5499 10.416V11.936C62.3259 12.0107 62.0699 12.064 61.7819 12.096C61.5045 12.1387 61.2432 12.16 60.9979 12.16ZM67.0431 12.16C66.3605 12.16 65.7205 12.0693 65.1231 11.888C64.5365 11.696 64.0298 11.424 63.6031 11.072L64.4511 9.872C64.9845 10.2027 65.4431 10.4373 65.8271 10.576C66.2218 10.7147 66.6218 10.784 67.0271 10.784C67.5071 10.784 67.8965 10.6827 68.1951 10.48C68.4938 10.2773 68.6431 10.016 68.6431 9.696C68.6431 9.45067 68.5525 9.25867 68.3711 9.12C68.2005 8.97067 67.9178 8.85867 67.5231 8.784L66.1151 8.544C65.3365 8.39467 64.7551 8.13867 64.3711 7.776C63.9871 7.41333 63.7951 6.93333 63.7951 6.336C63.7951 5.83467 63.9231 5.40267 64.1791 5.04C64.4458 4.66667 64.8085 4.37867 65.2671 4.176C65.7365 3.96267 66.2805 3.856 66.8991 3.856C67.4538 3.856 67.9925 3.936 68.5151 4.096C69.0378 4.256 69.5498 4.496 70.0511 4.816L69.2031 6.016C68.7978 5.74933 68.3925 5.55733 67.9871 5.44C67.5925 5.312 67.1925 5.248 66.7871 5.248C66.3711 5.248 66.0351 5.33333 65.7791 5.504C65.5338 5.664 65.4111 5.888 65.4111 6.176C65.4111 6.432 65.4911 6.62933 65.6511 6.768C65.8218 6.896 66.1151 6.992 66.5311 7.056L67.9551 7.328C68.7551 7.46667 69.3471 7.72267 69.7311 8.096C70.1258 8.45867 70.3231 8.944 70.3231 9.552C70.3231 10.0427 70.1791 10.4853 69.8911 10.88C69.6031 11.2747 69.2138 11.5893 68.7231 11.824C68.2325 12.048 67.6725 12.16 67.0431 12.16ZM75.7971 12V0.799999H80.7731C81.5091 0.799999 82.1598 0.943999 82.7251 1.232C83.2905 1.52 83.7278 1.92 84.0371 2.432C84.3571 2.93333 84.5171 3.52 84.5171 4.192C84.5171 4.91733 84.3145 5.552 83.9091 6.096C83.5145 6.62933 82.9758 7.01867 82.2931 7.264L84.6611 12H82.5331L80.3731 7.52H77.7171V12H75.7971ZM77.7171 5.984H80.5971C81.1945 5.984 81.6745 5.824 82.0371 5.504C82.3998 5.17333 82.5811 4.74133 82.5811 4.208C82.5811 3.664 82.3998 3.232 82.0371 2.912C81.6745 2.58133 81.1945 2.416 80.5971 2.416H77.7171V5.984ZM89.6449 12.16C88.8769 12.16 88.1835 11.9787 87.5649 11.616C86.9462 11.2427 86.4555 10.7467 86.0929 10.128C85.7302 9.49867 85.5489 8.78933 85.5489 8C85.5489 7.21067 85.7195 6.50667 86.0609 5.888C86.4022 5.26933 86.8662 4.77867 87.4529 4.416C88.0502 4.04267 88.7115 3.856 89.4369 3.856C90.1835 3.856 90.8395 4.03733 91.4049 4.4C91.9809 4.76267 92.4289 5.25333 92.7489 5.872C93.0795 6.49067 93.2449 7.2 93.2449 8V8.432H87.3249C87.3889 8.86933 87.5275 9.25867 87.7409 9.6C87.9649 9.93067 88.2475 10.192 88.5889 10.384C88.9409 10.576 89.3195 10.672 89.7249 10.672C90.0982 10.672 90.4502 10.608 90.7809 10.48C91.1222 10.3413 91.4049 10.1547 91.6289 9.92L92.8129 10.992C92.3222 11.3973 91.8209 11.696 91.3089 11.888C90.8075 12.0693 90.2529 12.16 89.6449 12.16ZM87.3409 7.312H91.5329C91.4689 6.928 91.3355 6.58667 91.1329 6.288C90.9409 5.98933 90.6955 5.75467 90.3969 5.584C90.1089 5.41333 89.7889 5.328 89.4369 5.328C89.0849 5.328 88.7595 5.41333 88.4609 5.584C88.1729 5.744 87.9329 5.97333 87.7409 6.272C87.5489 6.57067 87.4155 6.91733 87.3409 7.312ZM97.8869 12.16C97.2042 12.16 96.5642 12.0693 95.9669 11.888C95.3802 11.696 94.8735 11.424 94.4469 11.072L95.2949 9.872C95.8282 10.2027 96.2869 10.4373 96.6709 10.576C97.0655 10.7147 97.4655 10.784 97.8709 10.784C98.3509 10.784 98.7402 10.6827 99.0389 10.48C99.3375 10.2773 99.4869 10.016 99.4869 9.696C99.4869 9.45067 99.3962 9.25867 99.2149 9.12C99.0442 8.97067 98.7615 8.85867 98.3669 8.784L96.9589 8.544C96.1802 8.39467 95.5989 8.13867 95.2149 7.776C94.8309 7.41333 94.6389 6.93333 94.6389 6.336C94.6389 5.83467 94.7669 5.40267 95.0229 5.04C95.2895 4.66667 95.6522 4.37867 96.1109 4.176C96.5802 3.96267 97.1242 3.856 97.7429 3.856C98.2975 3.856 98.8362 3.936 99.3589 4.096C99.8815 4.256 100.394 4.496 100.895 4.816L100.047 6.016C99.6415 5.74933 99.2362 5.55733 98.8309 5.44C98.4362 5.312 98.0362 5.248 97.6309 5.248C97.2149 5.248 96.8789 5.33333 96.6229 5.504C96.3775 5.664 96.2549 5.888 96.2549 6.176C96.2549 6.432 96.3349 6.62933 96.4949 6.768C96.6655 6.896 96.9589 6.992 97.3749 7.056L98.7989 7.328C99.5989 7.46667 100.191 7.72267 100.575 8.096C100.97 8.45867 101.167 8.944 101.167 9.552C101.167 10.0427 101.023 10.4853 100.735 10.88C100.447 11.2747 100.058 11.5893 99.5669 11.824C99.0762 12.048 98.5162 12.16 97.8869 12.16ZM106.629 12.16C105.861 12.16 105.168 11.9787 104.549 11.616C103.931 11.2427 103.44 10.7467 103.077 10.128C102.715 9.49867 102.533 8.78933 102.533 8C102.533 7.21067 102.704 6.50667 103.045 5.888C103.387 5.26933 103.851 4.77867 104.437 4.416C105.035 4.04267 105.696 3.856 106.421 3.856C107.168 3.856 107.824 4.03733 108.389 4.4C108.965 4.76267 109.413 5.25333 109.733 5.872C110.064 6.49067 110.229 7.2 110.229 8V8.432H104.309C104.373 8.86933 104.512 9.25867 104.725 9.6C104.949 9.93067 105.232 10.192 105.573 10.384C105.925 10.576 106.304 10.672 106.709 10.672C107.083 10.672 107.435 10.608 107.765 10.48C108.107 10.3413 108.389 10.1547 108.613 9.92L109.797 10.992C109.307 11.3973 108.805 11.696 108.293 11.888C107.792 12.0693 107.237 12.16 106.629 12.16ZM104.325 7.312H108.517C108.453 6.928 108.32 6.58667 108.117 6.288C107.925 5.98933 107.68 5.75467 107.381 5.584C107.093 5.41333 106.773 5.328 106.421 5.328C106.069 5.328 105.744 5.41333 105.445 5.584C105.157 5.744 104.917 5.97333 104.725 6.272C104.533 6.57067 104.4 6.91733 104.325 7.312ZM112.073 12V3.984H113.881V5.712C114.116 5.104 114.42 4.64 114.793 4.32C115.166 4 115.598 3.84 116.089 3.84C116.238 3.85067 116.372 3.86667 116.489 3.888C116.606 3.89867 116.734 3.936 116.873 4V5.584C116.734 5.52 116.574 5.472 116.393 5.44C116.222 5.408 116.052 5.392 115.881 5.392C115.444 5.392 115.049 5.50933 114.697 5.744C114.356 5.97867 114.084 6.304 113.881 6.72V12H112.073ZM120.909 12L117.645 3.984H119.613L121.853 9.808L124.077 3.984H125.965L122.669 12H120.909ZM130.754 12.16C129.986 12.16 129.293 11.9787 128.674 11.616C128.056 11.2427 127.565 10.7467 127.202 10.128C126.84 9.49867 126.658 8.78933 126.658 8C126.658 7.21067 126.829 6.50667 127.17 5.888C127.512 5.26933 127.976 4.77867 128.562 4.416C129.16 4.04267 129.821 3.856 130.546 3.856C131.293 3.856 131.949 4.03733 132.514 4.4C133.09 4.76267 133.538 5.25333 133.858 5.872C134.189 6.49067 134.354 7.2 134.354 8V8.432H128.434C128.498 8.86933 128.637 9.25867 128.85 9.6C129.074 9.93067 129.357 10.192 129.698 10.384C130.05 10.576 130.429 10.672 130.834 10.672C131.208 10.672 131.56 10.608 131.89 10.48C132.232 10.3413 132.514 10.1547 132.738 9.92L133.922 10.992C133.432 11.3973 132.93 11.696 132.418 11.888C131.917 12.0693 131.362 12.16 130.754 12.16ZM128.45 7.312H132.642C132.578 6.928 132.445 6.58667 132.242 6.288C132.05 5.98933 131.805 5.75467 131.506 5.584C131.218 5.41333 130.898 5.328 130.546 5.328C130.194 5.328 129.869 5.41333 129.57 5.584C129.282 5.744 129.042 5.97333 128.85 6.272C128.658 6.57067 128.525 6.91733 128.45 7.312ZM139.477 12.08C138.805 12.08 138.197 11.8987 137.653 11.536C137.109 11.1627 136.672 10.672 136.341 10.064C136.021 9.44533 135.861 8.75733 135.861 8C135.861 7.232 136.027 6.544 136.357 5.936C136.688 5.31733 137.136 4.82667 137.701 4.464C138.277 4.10133 138.912 3.92 139.605 3.92C140.064 3.92 140.491 4.01067 140.885 4.192C141.291 4.36267 141.643 4.61867 141.941 4.96V0.528L143.749 0.207999V12H141.957V10.944C141.669 11.3067 141.312 11.5893 140.885 11.792C140.459 11.984 139.989 12.08 139.477 12.08ZM140.037 10.56C140.421 10.56 140.779 10.4853 141.109 10.336C141.44 10.176 141.717 9.95733 141.941 9.68V6.304C141.707 6.02667 141.424 5.81333 141.093 5.664C140.763 5.51467 140.411 5.44 140.037 5.44C139.579 5.44 139.168 5.552 138.805 5.776C138.453 5.98933 138.171 6.288 137.957 6.672C137.744 7.056 137.637 7.49867 137.637 8C137.637 8.48 137.744 8.91733 137.957 9.312C138.171 9.696 138.453 10 138.805 10.224C139.168 10.448 139.579 10.56 140.037 10.56ZM154.901 9.376C154.367 9.376 153.882 9.248 153.445 8.992C153.018 8.72533 152.677 8.368 152.421 7.92C152.175 7.46133 152.053 6.95467 152.053 6.4C152.053 5.83467 152.181 5.328 152.437 4.88C152.693 4.42133 153.034 4.05867 153.461 3.792C153.898 3.52533 154.378 3.392 154.901 3.392C155.327 3.392 155.738 3.48267 156.133 3.664C156.527 3.83467 156.863 4.07467 157.141 4.384L156.373 5.248C156.17 5.01333 155.946 4.83733 155.701 4.72C155.455 4.60267 155.205 4.544 154.949 4.544C154.639 4.544 154.357 4.624 154.101 4.784C153.855 4.944 153.658 5.168 153.509 5.456C153.37 5.73333 153.301 6.04267 153.301 6.384C153.301 6.736 153.375 7.05067 153.525 7.328C153.674 7.60533 153.871 7.824 154.117 7.984C154.362 8.144 154.639 8.224 154.949 8.224C155.215 8.224 155.461 8.17067 155.685 8.064C155.919 7.94667 156.143 7.776 156.357 7.552L157.125 8.4C156.837 8.70933 156.501 8.94933 156.117 9.12C155.733 9.29067 155.327 9.376 154.901 9.376ZM154.757 12.176C153.989 12.176 153.274 12.032 152.613 11.744C151.951 11.4453 151.37 11.0347 150.869 10.512C150.367 9.97867 149.978 9.36533 149.701 8.672C149.423 7.968 149.285 7.21067 149.285 6.4C149.285 5.58933 149.423 4.83733 149.701 4.144C149.978 3.44 150.367 2.82667 150.869 2.304C151.37 1.77067 151.951 1.36 152.613 1.072C153.285 0.773333 153.999 0.624 154.757 0.624C155.525 0.624 156.239 0.773333 156.901 1.072C157.573 1.36 158.159 1.76533 158.661 2.288C159.162 2.81067 159.551 3.424 159.829 4.128C160.117 4.82133 160.261 5.57867 160.261 6.4C160.261 7.21067 160.117 7.968 159.829 8.672C159.551 9.376 159.162 9.98933 158.661 10.512C158.159 11.0347 157.573 11.4453 156.901 11.744C156.239 12.032 155.525 12.176 154.757 12.176ZM154.757 11.312C155.407 11.312 156.01 11.1893 156.565 10.944C157.119 10.688 157.605 10.336 158.021 9.888C158.447 9.42933 158.778 8.90667 159.013 8.32C159.258 7.72267 159.381 7.08267 159.381 6.4C159.381 5.728 159.258 5.09333 159.013 4.496C158.778 3.89867 158.447 3.376 158.021 2.928C157.605 2.48 157.119 2.128 156.565 1.872C156.01 1.616 155.407 1.488 154.757 1.488C154.127 1.488 153.535 1.616 152.981 1.872C152.426 2.11733 151.941 2.464 151.525 2.912C151.109 3.36 150.778 3.88267 150.533 4.48C150.298 5.07733 150.181 5.71733 150.181 6.4C150.181 7.08267 150.298 7.72267 150.533 8.32C150.778 8.90667 151.109 9.424 151.525 9.872C151.941 10.32 152.426 10.672 152.981 10.928C153.535 11.184 154.127 11.312 154.757 11.312ZM168.816 12V2.464H165.072V0.799999H174.48V2.464H170.736V12H168.816ZM175.354 12V3.984H177.162V5.712C177.397 5.104 177.701 4.64 178.074 4.32C178.448 4 178.88 3.84 179.37 3.84C179.52 3.85067 179.653 3.86667 179.77 3.888C179.888 3.89867 180.016 3.936 180.154 4V5.584C180.016 5.52 179.856 5.472 179.674 5.44C179.504 5.408 179.333 5.392 179.162 5.392C178.725 5.392 178.33 5.50933 177.978 5.744C177.637 5.97867 177.365 6.304 177.162 6.72V12H175.354ZM183.818 12.144C183.263 12.144 182.767 12.0427 182.33 11.84C181.903 11.6267 181.567 11.3387 181.322 10.976C181.087 10.6027 180.97 10.176 180.97 9.696C180.97 9.216 181.092 8.8 181.338 8.448C181.594 8.096 181.951 7.824 182.41 7.632C182.868 7.44 183.412 7.344 184.042 7.344C184.415 7.344 184.783 7.38667 185.146 7.472C185.508 7.54667 185.86 7.67467 186.202 7.856V6.96C186.202 6.42667 186.047 6.02667 185.738 5.76C185.439 5.49333 184.98 5.36 184.362 5.36C184.031 5.36 183.674 5.41333 183.29 5.52C182.916 5.616 182.495 5.77067 182.026 5.984L181.386 4.672C182.559 4.128 183.668 3.856 184.714 3.856C185.759 3.856 186.564 4.112 187.13 4.624C187.706 5.12533 187.994 5.84 187.994 6.768V12H186.202V11.168C185.86 11.4987 185.492 11.744 185.098 11.904C184.703 12.064 184.276 12.144 183.818 12.144ZM182.666 9.664C182.666 10.0373 182.815 10.3307 183.114 10.544C183.412 10.7573 183.812 10.864 184.314 10.864C184.676 10.864 185.012 10.8107 185.322 10.704C185.642 10.5867 185.935 10.416 186.202 10.192V8.896C185.924 8.768 185.636 8.672 185.338 8.608C185.039 8.544 184.714 8.512 184.362 8.512C183.839 8.512 183.423 8.61333 183.114 8.816C182.815 9.01867 182.666 9.30133 182.666 9.664ZM192.143 12L188.879 3.984H190.847L193.087 9.808L195.311 3.984H197.199L193.903 12H192.143ZM201.989 12.16C201.221 12.16 200.527 11.9787 199.909 11.616C199.29 11.2427 198.799 10.7467 198.437 10.128C198.074 9.49867 197.893 8.78933 197.893 8C197.893 7.21067 198.063 6.50667 198.405 5.888C198.746 5.26933 199.21 4.77867 199.797 4.416C200.394 4.04267 201.055 3.856 201.781 3.856C202.527 3.856 203.183 4.03733 203.749 4.4C204.325 4.76267 204.773 5.25333 205.093 5.872C205.423 6.49067 205.589 7.2 205.589 8V8.432H199.669C199.733 8.86933 199.871 9.25867 200.085 9.6C200.309 9.93067 200.591 10.192 200.933 10.384C201.285 10.576 201.663 10.672 202.069 10.672C202.442 10.672 202.794 10.608 203.125 10.48C203.466 10.3413 203.749 10.1547 203.973 9.92L205.157 10.992C204.666 11.3973 204.165 11.696 203.653 11.888C203.151 12.0693 202.597 12.16 201.989 12.16ZM199.685 7.312H203.877C203.813 6.928 203.679 6.58667 203.477 6.288C203.285 5.98933 203.039 5.75467 202.741 5.584C202.453 5.41333 202.133 5.328 201.781 5.328C201.429 5.328 201.103 5.41333 200.805 5.584C200.517 5.744 200.277 5.97333 200.085 6.272C199.893 6.57067 199.759 6.91733 199.685 7.312ZM207.433 12V0.528L209.241 0.207999V12H207.433ZM215.282 12V0.799999H220.29C221.047 0.799999 221.703 0.949333 222.258 1.248C222.823 1.536 223.26 1.94133 223.57 2.464C223.879 2.98667 224.034 3.59467 224.034 4.288C224.034 4.94933 223.879 5.54133 223.57 6.064C223.26 6.58667 222.823 6.99733 222.258 7.296C221.703 7.584 221.047 7.728 220.29 7.728H217.202V12H215.282ZM217.202 6.16H219.986C220.668 6.16 221.191 5.98933 221.554 5.648C221.916 5.296 222.098 4.83733 222.098 4.272C222.098 3.71733 221.916 3.26933 221.554 2.928C221.191 2.58667 220.674 2.416 220.002 2.416H217.202V6.16ZM228.862 12.144C228.105 12.144 227.417 11.9627 226.798 11.6C226.19 11.2373 225.71 10.7467 225.358 10.128C225.006 9.49867 224.83 8.78933 224.83 8C224.83 7.21067 225.006 6.50667 225.358 5.888C225.71 5.25867 226.19 4.76267 226.798 4.4C227.406 4.03733 228.094 3.856 228.862 3.856C229.63 3.856 230.313 4.03733 230.91 4.4C231.518 4.76267 231.998 5.25867 232.35 5.888C232.702 6.50667 232.878 7.21067 232.878 8C232.878 8.78933 232.702 9.49867 232.35 10.128C231.998 10.7467 231.518 11.2373 230.91 11.6C230.313 11.9627 229.63 12.144 228.862 12.144ZM228.862 10.608C229.299 10.608 229.683 10.496 230.014 10.272C230.355 10.048 230.622 9.73867 230.814 9.344C231.006 8.93867 231.102 8.49067 231.102 8C231.102 7.49867 231.006 7.056 230.814 6.672C230.622 6.27733 230.355 5.968 230.014 5.744C229.683 5.50933 229.299 5.392 228.862 5.392C228.425 5.392 228.035 5.50933 227.694 5.744C227.353 5.968 227.086 6.27733 226.894 6.672C226.702 7.056 226.606 7.49867 226.606 8C226.606 8.50133 226.702 8.94933 226.894 9.344C227.086 9.73867 227.353 10.048 227.694 10.272C228.035 10.496 228.425 10.608 228.862 10.608ZM234.745 12V3.984H236.553V5.712C236.788 5.104 237.092 4.64 237.465 4.32C237.838 4 238.27 3.84 238.761 3.84C238.91 3.85067 239.044 3.86667 239.161 3.888C239.278 3.89867 239.406 3.936 239.545 4V5.584C239.406 5.52 239.246 5.472 239.065 5.44C238.894 5.408 238.724 5.392 238.553 5.392C238.116 5.392 237.721 5.50933 237.369 5.744C237.028 5.97867 236.756 6.304 236.553 6.72V12H234.745ZM244.482 12.16C243.672 12.16 243.058 11.9733 242.642 11.6C242.226 11.216 242.018 10.656 242.018 9.92V5.424H240.418V3.984H242.018V1.776L243.826 1.392V3.984H246.05V5.424H243.826V9.52C243.826 9.91467 243.912 10.1973 244.082 10.368C244.253 10.528 244.541 10.608 244.946 10.608C245.128 10.608 245.293 10.5973 245.442 10.576C245.602 10.544 245.8 10.4907 246.034 10.416V11.936C245.81 12.0107 245.554 12.064 245.266 12.096C244.989 12.1387 244.728 12.16 244.482 12.16ZM250.083 12.144C249.529 12.144 249.033 12.0427 248.595 11.84C248.169 11.6267 247.833 11.3387 247.587 10.976C247.353 10.6027 247.235 10.176 247.235 9.696C247.235 9.216 247.358 8.8 247.603 8.448C247.859 8.096 248.217 7.824 248.675 7.632C249.134 7.44 249.678 7.344 250.307 7.344C250.681 7.344 251.049 7.38667 251.411 7.472C251.774 7.54667 252.126 7.67467 252.467 7.856V6.96C252.467 6.42667 252.313 6.02667 252.003 5.76C251.705 5.49333 251.246 5.36 250.627 5.36C250.297 5.36 249.939 5.41333 249.555 5.52C249.182 5.616 248.761 5.77067 248.291 5.984L247.651 4.672C248.825 4.128 249.934 3.856 250.979 3.856C252.025 3.856 252.83 4.112 253.395 4.624C253.971 5.12533 254.259 5.84 254.259 6.768V12H252.467V11.168C252.126 11.4987 251.758 11.744 251.363 11.904C250.969 12.064 250.542 12.144 250.083 12.144ZM248.931 9.664C248.931 10.0373 249.081 10.3307 249.379 10.544C249.678 10.7573 250.078 10.864 250.579 10.864C250.942 10.864 251.278 10.8107 251.587 10.704C251.907 10.5867 252.201 10.416 252.467 10.192V8.896C252.19 8.768 251.902 8.672 251.603 8.608C251.305 8.544 250.979 8.512 250.627 8.512C250.105 8.512 249.689 8.61333 249.379 8.816C249.081 9.01867 248.931 9.30133 248.931 9.664ZM256.448 12V0.528L258.256 0.207999V12H256.448Z" fill="white"/>
</svg>
